# xmcd
#
# Track frame offsets:
#	150
#	12968
#	25379
#	39969
#	57940
#	77474
#	97411
#	129759
#	149065
#	169261
#	193581
#	219694
#	240850
#	262507
#	276810
#	301158
#
# Disc length: 4217
#
# Revision: 1
# Processed by: cddbd v1.5.1PL0 Copyright (c) Steve Scherf et al.
# Submitted via: CDex 1.51
# Normalized: r0:DSETVAR2,TDELIM( - )
#
DISCID=d2107710
DTITLE=Various Artist - Ladies singing at the piano
DYEAR=2004
DGENRE=Jazz
TTITLE0=Helen Humes - He don't love me anymore
TTITLE1=Rose Murphy - Busy Line
TTITLE2=Dinah Washington - Am I blue ?
TTITLE3=Sarah Vaughan - Lullaby of birdland
TTITLE4=Carmen McRae - Lover man
TTITLE5=Nina Simone - Four women
TTITLE6=Shirley Horn - You don't forget me
TTITLE7=Carla Bley - India song
TTITLE8=Karen Mantler - I hate money
TTITLE9=Annette Peacock - Tho
TTITLE10=Tania Maria - Nao se avexe nao
TTITLE11=Diana Krall - The look of love
TTITLE12=Susi Hyldgaard - Sex is out of question
TTITLE13=Tori Amos - The Waitress
TTITLE14=Fiona Apple - Shadowboxer
TTITLE15=Emily Haines-Metric - Dead disco
EXTD=YEAR: 2004
EXTT0=
EXTT1=
EXTT2=
EXTT3=
EXTT4=
EXTT5=
EXTT6=
EXTT7=
EXTT8=
EXTT9=
EXTT10=
EXTT11=
EXTT12=
EXTT13=
EXTT14=
EXTT15=
PLAYORDER=
